<svg width="80" height="80" viewBox="0 0 80 80" fill="none" xmlns="http://www.w3.org/2000/svg">
<path d="M0 2.34373V4.68748H1.01562H2.03125V7.04685V9.40623L1.40625 10.1094C-0.5625 12.3437 -0.390625 16.0156 1.76562 18.25C4.76562 21.3281 9.84375 20.4844 11.75 16.5937C12.2344 15.625 12.2656 15.4375 12.2656 13.9844C12.2656 12.2031 12.0312 11.5 10.9375 10.0469L10.3125 9.23435V6.9531V4.68748H32.5781C54.4219 4.68748 54.875 4.68748 55.4531 4.37498C56.0938 4.04685 56.7188 3.04685 56.7188 2.34373C56.7188 1.59373 56.1094 0.656225 55.4062 0.3281C54.75 -2.47955e-05 54.6875 -2.47955e-05 27.375 -2.47955e-05H0V2.34373ZM7.96875 6.28123V7.8906H6.17188H4.375V6.28123V4.68748H6.17188H7.96875V6.28123ZM6.98438 9.84373C7.09375 10.0625 7.1875 10.8125 7.1875 11.5781V12.9375L8.14062 13C9.17188 13.0781 9.53125 13.3281 9.53125 14C9.53125 14.7031 9.17188 14.8437 7.35938 14.8437C6.26562 14.8437 5.625 14.7812 5.5 14.6562C5.375 14.5312 5.3125 13.7344 5.3125 12.0781C5.3125 9.98435 5.34375 9.68748 5.59375 9.54685C6.0625 9.24998 6.76562 9.40623 6.98438 9.84373Z" fill="white"/>
<path d="M21.2031 16.4688C19.3438 17.1406 18.1406 18.8125 18.125 20.7969C18.125 22.5469 19.0938 24.1406 20.6875 24.9531C21.8594 25.5625 23.4844 25.5625 24.7188 24.9531C26.3594 24.1406 27.2656 22.7031 27.25 20.8594C27.25 20.0469 27.1562 19.5469 26.8906 18.9375C26.4375 17.9219 25.2656 16.8438 24.2656 16.5C23.3906 16.2031 22.0156 16.1875 21.2031 16.4688Z" fill="white"/>
<path d="M53.0938 16.5C52.2188 16.9688 51.9532 18.125 52.5 19.0312C53.0782 19.9844 53.25 20 59.9219 20C66.5938 20 66.7657 19.9844 67.3438 19.0312C67.9063 18.1094 67.625 16.9531 66.7188 16.4844C66.0469 16.1406 53.7344 16.1406 53.0938 16.5Z" fill="white"/>
<path d="M45.8594 22.875C43.5469 23.4375 41.7031 25.0937 40.7656 27.4219L40.3906 28.3594L40.3437 41.4531C40.3125 50.0312 40.3594 54.8594 40.4687 55.4375C40.875 57.625 42.4062 59.6562 44.4062 60.5937C45.7656 61.25 47.2031 61.4375 50.625 61.375L53.3594 61.3281L53.4375 59.5781C53.5312 57.625 53.6719 57.3125 54.6719 57.0312C55.4062 56.8281 64.4375 56.8281 65.1719 57.0312C66.1719 57.3125 66.3125 57.625 66.4062 59.5781L66.4844 61.3281L69.2187 61.375C72.5781 61.4375 74.1094 61.25 75.4375 60.625C77.375 59.7187 78.9844 57.6094 79.375 55.4375C79.4844 54.8594 79.5312 50.0312 79.5 41.4531L79.4531 28.3594L79.0781 27.4219C78.1094 25.0156 76.1875 23.3281 73.7812 22.8281C72.5625 22.5781 46.9219 22.6094 45.8594 22.875ZM73.8594 29.5312C74.9375 30.1875 74.9219 30.0312 74.9687 36.6719C75.0156 42.3437 75 42.6875 74.7031 43.3594C74.5156 43.7812 74.1875 44.1719 73.875 44.375C73.375 44.6875 73.1406 44.6875 59.9219 44.6875C46.875 44.6875 46.4687 44.6719 45.9844 44.375C44.9219 43.7344 44.9219 43.7344 44.9219 36.875C44.9219 30 44.8906 30.1875 45.9844 29.5312C46.4687 29.2344 46.875 29.2187 59.9219 29.2187C72.9687 29.2187 73.375 29.2344 73.8594 29.5312ZM49.9844 51.3594C51 52 51.625 53.2031 51.5156 54.3437C51.2187 57.2812 47.7969 58.5 45.8281 56.3594C44.5781 55 44.6094 53.0937 45.9062 51.8281C47.0781 50.6875 48.6094 50.5156 49.9844 51.3594ZM73.4062 51.2969C76 53 75.0156 57.0625 71.9531 57.3125C69.9844 57.4687 68.2812 55.9844 68.2812 54.0781C68.2812 52.9219 69.1406 51.5781 70.2187 51.0625C71.1562 50.6406 72.5625 50.7344 73.4062 51.2969Z" fill="white"/>
<path d="M17.9688 27.125C17.6719 27.25 17.2969 27.4844 17.1406 27.625C16.6719 28.0469 16.25 29 16.25 29.625V30.1875L16.6562 29.9219C17.5781 29.3125 17.0469 29.8906 14.9375 31.7656L12.7031 33.7344L11.2656 37.8125C9.57812 42.6562 9.53125 43 10.4531 43.9219C11 44.4688 11.1406 44.5312 11.8594 44.5312C12.5469 44.5312 12.7344 44.4531 13.2031 44.0156C13.6875 43.5781 13.9219 43.0625 15 39.9219C16.25 36.3438 16.25 36.3281 17.0781 35.5469C18.5 34.2188 20.2188 32.7188 20.0781 32.9688C20 33.0938 19.4688 33.875 18.8906 34.7031C18.0156 35.9531 17.7188 36.5625 17.0469 38.4688L16.25 40.7188V53.6562C16.25 62.8906 16.2969 66.6875 16.4219 66.9219C16.5156 67.1094 16.8125 67.5 17.0781 67.7812L17.5625 68.2812H14.9375H12.2969L12.7344 67.875C13.0938 67.5469 13.1562 67.3906 13.0938 66.9062C13.0156 66.375 13.0625 66.3125 13.5 66.0938C13.7656 65.9688 14.1094 65.6094 14.2656 65.3125C14.5156 64.8125 14.5312 64.1406 14.5 56.6562L14.4531 48.5625L13.7969 47.9688C13.1875 47.4375 13.125 47.3125 13.125 46.6719V45.9688L11.9531 45.9844H10.7969L10.75 46.7031L10.7031 47.4219L8.59375 47.5C7.3125 47.5469 6.34375 47.6562 6.14062 47.7812C5.3125 48.25 5.3125 48.25 5.3125 57.0156V65.125L5.70312 65.6094C5.92188 65.8594 6.23438 66.125 6.40625 66.1719C6.64062 66.25 6.70312 66.4062 6.6875 66.9062C6.6875 67.4219 6.76562 67.6406 7.09375 67.9219L7.51562 68.2812H3.76562H0V74.1406V80H17.0312H34.0625V76.0156V72.0312H35.3906H36.7188V70.1562V68.2812H31.3125H25.8906L26.3281 67.9375C26.5625 67.75 26.8906 67.3125 27.0469 66.9688C27.3281 66.3594 27.3438 65.5 27.3438 47.9688C27.3438 35.8125 27.2812 29.4062 27.1875 29.0312C26.9688 28.25 26.3281 27.5156 25.5469 27.1719C25 26.9219 24.5 26.875 21.7188 26.8906C19.2188 26.8906 18.3906 26.9375 17.9688 27.125ZM22.3438 56.1562C22.3438 62.9844 22.4062 66.5312 22.5156 66.8281C22.5938 67.0625 22.8906 67.5 23.1719 67.7812L23.6562 68.2812H21.7344H19.7969L20.2188 67.9531C21.125 67.2344 21.0938 67.6406 21.0938 56.4375C21.0938 50.7812 21.1406 46.0938 21.2031 46.0469C21.25 45.9844 21.5312 45.9375 21.8281 45.9375H22.3438V56.1562ZM10.6562 66.9219C10.6094 67.3125 10.6875 67.5312 11.0312 67.8594L11.4531 68.2812H9.92188H8.39062L8.75 67.8906C9 67.625 9.125 67.3125 9.125 66.9531V66.4062H9.92188H10.7188L10.6562 66.9219Z" fill="white"/>
<path d="M45.7031 66.2812C45.0781 67.5938 43.5156 70.8281 42.2188 73.4688L39.8594 78.2812H42.6406H45.4062L45.9375 77.1875L46.4688 76.0938H59.9219H73.375L73.9062 77.1875L74.4375 78.2812H77.2031H79.9844L77.7031 73.6406C76.4531 71.0781 74.875 67.8438 74.2031 66.4375L72.9844 63.9062H70.25C68.7344 63.9062 67.5 63.9375 67.5 63.9844C67.5 64.0312 67.7812 64.625 68.125 65.3125L68.75 66.5625H59.9219H51.0938L51.7188 65.3125C52.0625 64.625 52.3438 64.0312 52.3438 63.9844C52.3438 63.9375 51.1094 63.9062 49.5938 63.9062H46.8594L45.7031 66.2812ZM71.0625 71.3281L71.875 72.9688H60C52.2969 72.9688 48.125 72.9219 48.125 72.8125C48.125 72.7344 48.4531 71.9844 48.8594 71.1719L49.6094 69.6875H59.9219H70.2344L71.0625 71.3281Z" fill="white"/>
</svg>
