<svg width="52" height="80" viewBox="0 0 52 80" fill="none" xmlns="http://www.w3.org/2000/svg">
<path d="M23.1406 0.171875C16.0937 0.984375 9.70312 4.6875 5.34375 10.4688C4.01562 12.2344 2.25 15.5781 1.5625 17.6562C-0.562502 24.0469 -0.125002 31.0781 2.79687 37.1094C6.51562 44.7969 13.9062 50.2344 22.2344 51.4219L23.6562 51.625V65.8125V80H26H28.3437V65.8125V51.625L29.7656 51.4219C35.1094 50.6719 40.1875 48.1094 44.1094 44.2188C51.2969 37.0781 53.625 26.75 50.2188 17.1094C47.7812 10.25 42.2031 4.48438 35.3906 1.79688C31.625 0.3125 27.0937 -0.296875 23.1406 0.171875ZM29.9844 5.07812C36.5938 6.46875 41.8594 10.5 44.875 16.5C45.6406 18.0312 46.375 20.1719 46.7344 21.9844C47.1094 23.9062 47.1094 28.0156 46.7344 29.8438C45.8125 34.2812 43.9375 37.75 40.7812 40.8594C37.6406 43.9688 34.2969 45.75 29.9062 46.6719C28.0625 47.0469 23.9375 47.0469 22.0937 46.6719C17.6719 45.75 14.25 43.8906 11.0781 40.7188C7.98437 37.6094 6.1875 34.2344 5.26562 29.8438C4.89062 28.0156 4.89062 23.9062 5.26562 21.9844C7.0625 12.9531 14.2812 6.09375 23.2812 4.85938C24.7969 4.64062 28.5 4.76562 29.9844 5.07812Z" fill="white"/>
<path d="M14.2812 25.9375V37.6562H16.625H18.9688L19 30.5625L19.0469 23.4844L22.4844 29.3125C24.375 32.5156 25.9531 35.1406 26 35.1406C26.0469 35.1406 27.625 32.5156 29.5156 29.3125L32.9531 23.4844L33 30.5625L33.0312 37.6562H35.375H37.7188V25.9375V14.2188H35.3438L32.9531 14.2344L29.5156 20.0781C27.625 23.2969 26.0469 25.9375 26 25.9375C25.9531 25.9375 24.375 23.2969 22.4844 20.0781L19.0469 14.2344L16.6719 14.2188H14.2812V25.9375Z" fill="white"/>
</svg>
