<svg width="80" height="76" viewBox="0 0 80 76" fill="none" xmlns="http://www.w3.org/2000/svg">
<path d="M42.8906 0.546875C41.2812 1.3125 40.4219 2.64062 40.4531 4.3125C40.4531 5.03125 40.0781 6.73438 38.9375 11.2344L37.4219 17.2188H34.7969C31.5781 17.2188 31.0781 17.3906 31.0938 18.5156C31.1094 19.4375 31.8281 19.7188 34.1094 19.7188H35.8594V20.8125V21.9062H23.9062H11.9531L12.4531 21.5938C12.7344 21.4219 13.1562 20.9375 13.3906 20.5156L13.8281 19.7344L20.5156 19.6875L27.2188 19.6406L27.5938 19.2031C28.0938 18.625 28.0625 18.2344 27.5156 17.6719L27.0625 17.2188H21.0312C17.7188 17.2188 15 17.1719 15 17.125C15 17.0781 15.5 15.9219 16.0938 14.5469C18.1406 9.95312 18.3594 9.07812 17.9062 7.17188C17.4375 5.20312 16.4219 3.71875 14.8125 2.6875C12.3906 1.10938 9.01562 1.28125 6.82812 3.0625C5.0625 4.5 4.21875 6.125 4.09375 8.32812C4 10.0156 4.0625 10.2188 6.28125 15.1875L7.96875 19L7.73438 19.5938C6.96875 21.5312 8.21875 23.7812 10.3281 24.2344C10.8438 24.3438 15.2188 24.4062 23.2812 24.4062C29.9844 24.4062 35.4688 24.4531 35.4688 24.5156C35.4844 24.5938 34.8281 27.1875 34.0312 30.2969L32.5781 35.9688H28.7344C25.5312 35.9688 24.7812 35.9219 24.2812 35.7188C23.9375 35.5781 23.25 35.4688 22.7344 35.4688C22.2188 35.4688 21.5312 35.5781 21.1875 35.7188C20.6562 35.9375 19.6719 35.9688 13.4375 35.9688C7.20312 35.9688 6.21875 35.9375 5.6875 35.7188C4.90625 35.3906 3.375 35.3906 2.57812 35.7188C1.8125 36.0469 0.859375 36.9375 0.421875 37.7656C-0.046875 38.6406 -0.046875 40.4688 0.421875 41.375C1.48438 43.3906 3.82812 44.2344 5.84375 43.3438C6.57812 43.0156 6.76562 43 12.9219 43H19.2344L19.2031 53.7656L19.1719 64.5156L19.625 65.3438C20.0781 66.1719 20.5938 66.6562 21.5469 67.1406C22.0469 67.3906 23.0156 67.4062 34.5156 67.3906L46.9688 67.3594L48.5 70.8438C49.3594 72.7656 50.2188 74.5625 50.4219 74.8438C50.9219 75.5156 51.5469 75.8125 52.5 75.8125C53.4531 75.8125 54.0781 75.5156 54.5781 74.8438C55.0312 74.2188 58.9375 65.4531 59.2812 64.2656C59.75 62.6562 59.5 60.6562 58.625 59.0469C58.4062 58.625 57.7344 57.8438 57.1562 57.2969L56.0938 56.3125V54.0312V51.75H61.4531C65.4219 51.75 66.8906 51.6875 67.1875 51.5469C67.6562 51.3125 67.8906 50.7031 67.75 50.125C67.5469 49.3125 67.0938 49.25 61.5938 49.25H56.6094L56.5938 48.1562V47.0625H65.1094C73.8281 47.0625 74.0312 47.0469 74.4844 46.4531C74.625 46.2656 74.6719 44.2812 74.6875 38.375V30.5469H75.8594H77.0312V38.3125C77.0312 46.5781 77 47 76.2656 47.9375C75.5312 48.8594 74.8906 49.1406 73.2344 49.2656C71.4531 49.3906 71.0938 49.5938 71.0938 50.5C71.0938 51.4531 71.4844 51.6719 73.1875 51.6719C74.2031 51.6719 74.8281 51.5781 75.3906 51.375C77.1875 50.6875 78.5312 49.3125 79.0625 47.5781C79.3594 46.6094 79.375 46.1562 79.375 37.5781C79.375 29.375 79.3906 28.5625 79.6406 28.1094C79.8281 27.7656 79.9219 27.25 79.9219 26.4375C79.9219 25.625 79.8281 25.1094 79.6406 24.7656C79.3906 24.3125 79.375 23.5 79.375 15.3438C79.375 7.1875 79.3906 6.375 79.6406 5.92188C80.0469 5.17188 80.0156 3.26562 79.5781 2.4375C79.1719 1.67188 78.1719 0.75 77.4062 0.421875C76.5938 0.078125 74.9219 0.125 74.0781 0.5C73.4219 0.796875 73.0156 0.8125 60.0781 0.8125C47.8125 0.8125 46.7188 0.796875 46.2344 0.546875C45.9375 0.390625 45.25 0.25 44.6875 0.21875C43.875 0.1875 43.5156 0.25 42.8906 0.546875ZM45.3125 2.76562C45.9531 3.09375 46.25 3.59375 46.25 4.375C46.25 5.46875 45.1719 6.32812 44.125 6.0625C43.8906 6 43.5156 5.75 43.2656 5.5C42.9062 5.15625 42.8125 4.90625 42.8125 4.40625C42.8125 3.59375 43.0156 3.21875 43.6406 2.84375C44.2344 2.46875 44.7031 2.45312 45.3125 2.76562ZM76.8281 2.84375C77.5312 3.26562 77.8125 4.20312 77.4531 4.95312C77.125 5.64062 76.5625 6 75.8438 6C74.25 6 73.5 4.01562 74.6875 2.95312C75.2656 2.4375 76.0938 2.39062 76.8281 2.84375ZM71.7969 4.32812V5.5H60.2188H48.6406V4.32812V3.15625H60.2188H71.7969V4.32812ZM12.4688 4.17188C13.5312 4.48438 14.8438 5.6875 15.2969 6.75C15.7812 7.875 15.7656 9.23438 15.25 10.5156C14.1094 13.375 11.2656 19.4844 11.0625 19.5312C10.8906 19.5625 10.2656 18.3125 8.84375 15.0938C7.75 12.6406 6.75 10.3438 6.625 10C5.82812 7.71875 7.20312 5.04688 9.60938 4.21875C10.5781 3.875 11.4375 3.875 12.4688 4.17188ZM43.8906 8.40625C44.2812 8.46875 44.5156 8.57812 44.4844 8.6875C44.4531 8.78125 43.9375 10.7188 43.3594 13C42.7656 15.2812 42.2812 17.1562 42.25 17.1875C42.2188 17.2344 41 16.875 40.2969 16.6094C40.0781 16.5312 40.1875 15.9844 41.1094 12.375C41.7031 10.0938 42.2188 8.14062 42.2656 8.03125C42.3281 7.875 42.4375 7.875 42.7969 8.0625C43.0469 8.20312 43.5469 8.34375 43.8906 8.40625ZM72.3438 16.0156C72.3438 23.4219 72.3125 24.25 72.0781 24.7344C71.6562 25.5781 71.625 26.9844 72.0156 28C72.3281 28.8281 72.3438 29.125 72.3438 36.7031V44.5625H64.2188H56.1094L56.0625 33.2656C56.0156 22.0469 56.0156 21.9844 55.6719 21.1406C54.9531 19.4062 53.875 18.3125 52.2188 17.6719C51.4375 17.3594 50.9375 17.3125 48.0312 17.2344L44.7344 17.1406L45.8906 12.6875C46.5156 10.2344 47.0625 8.14062 47.1094 8.03125C47.1562 7.89062 49.8438 7.84375 59.7656 7.84375H72.3438V16.0156ZM77.0312 15.375V22.3594H75.8594H74.6875V15.375V8.375H75.8594H77.0312V15.375ZM41.2031 19.6406C41.7188 20.1562 41.75 20.25 41.6719 20.9219C41.4688 22.8281 38.875 23.1562 38.2812 21.3594C37.8906 20.1875 38.7031 19.0938 39.9531 19.0938C40.5469 19.0938 40.7344 19.1719 41.2031 19.6406ZM51.6406 20.0156C51.9844 20.1719 52.4531 20.5 52.6875 20.75C53.625 21.75 53.5938 21.3594 53.5938 33.2344V44.0938H52.5H51.4062L51.375 33.3906L51.3281 22.7031L50.9688 22.3438C50.625 22 50.5156 21.9844 47.2969 21.9375L43.9844 21.8906L44.0312 20.7969L44.0938 19.7188H47.5469C50.5938 19.7188 51.0938 19.7656 51.6406 20.0156ZM48.9062 35.2656C48.9062 45.0625 48.875 46.1875 48.6562 46.6406C48.4844 46.9531 48.3906 47.5156 48.3906 48.1562C48.3906 48.7969 48.4844 49.3594 48.6562 49.6719C48.8594 50.0938 48.9062 50.7031 48.9062 53.3594V56.5469L48.5 56.7656C47.8906 57.0938 46.7344 58.4375 46.2812 59.3594L45.875 60.1875H36.0625H26.25V51.5938V43H30.2969C33.8281 43 34.4688 42.9688 35.2969 42.7031C36.9531 42.1875 38.1562 41.0781 38.8906 39.4062C39.125 38.8438 42.8125 24.8594 42.8125 24.5C42.8125 24.4531 44.1875 24.4062 45.8594 24.4062H48.9062V35.2656ZM39.2969 24.875C39.6406 24.9375 39.9688 24.9688 40.0312 24.9375C40.1094 24.8906 40.1562 24.9688 40.1562 25.125C40.1562 25.6406 36.8281 38.25 36.5469 38.8125C36.1875 39.5312 35.3125 40.25 34.5469 40.4844C34.1719 40.5938 32.6094 40.6562 30.4219 40.6562H26.9062L26.8438 39.4844L26.7969 38.3125H30.3594C33.8438 38.3125 33.9219 38.3125 34.2656 37.9531C34.5469 37.6875 34.9531 36.2812 36.1562 31.5938C37.0156 28.2812 37.7656 25.3438 37.8438 25.0625C37.9688 24.6094 38.0469 24.5469 38.3281 24.6406C38.5156 24.7031 38.9531 24.7969 39.2969 24.875ZM76.9219 25.0312C77.4844 25.4844 77.7344 26.2969 77.5 26.9844C77.0938 28.2031 75.625 28.5781 74.6562 27.7031C74.2031 27.2969 74.1406 27.1562 74.1406 26.4375C74.1406 25.7188 74.2031 25.5781 74.6562 25.1719C75.2812 24.6094 76.2969 24.5469 76.9219 25.0312ZM5.34375 38.2969C5.79688 38.7031 5.85938 38.8438 5.85938 39.5625C5.85938 40.2812 5.79688 40.4219 5.34375 40.8281C3.98438 42.0469 1.9375 40.7344 2.5 39.0156C2.90625 37.7969 4.375 37.4219 5.34375 38.2969ZM24 38.375C24.4375 38.8125 24.5312 39.0312 24.5312 39.5625C24.5312 40.0938 24.4375 40.3125 24 40.75C23.5625 41.1875 23.3438 41.2812 22.8125 41.2812C21.5469 41.2812 20.7031 40.1875 21.0938 39.0156C21.3438 38.2812 21.9531 37.8594 22.7969 37.8438C23.3594 37.8438 23.5625 37.9375 24 38.375ZM18.6719 39.4844V40.6562H13.4375H8.20312V39.4844V38.3125H13.4375H18.6875L18.6719 39.4844ZM23.9062 51.4688V59.25H23.2188C22.8438 59.25 22.3125 59.2969 22.0469 59.3438L21.5625 59.4375V51.5469V43.6562L22.7344 43.6719H23.9062V51.4688ZM53.6875 46.9688C54.8281 48.1094 54.1094 49.875 52.5 49.875C51.4219 49.875 50.7812 49.2031 50.7812 48.0781C50.7812 47.2188 51.6094 46.4375 52.5 46.4375C53.0312 46.4375 53.25 46.5312 53.6875 46.9688ZM53.5938 53.8906V55.5H52.5H51.4062V53.8906V52.2812H52.5H53.5938V53.8906ZM54.1094 58.1562C55.7656 58.7812 56.8906 60.2188 57.125 62.0156C57.2656 63.1406 56.9688 64 54.625 69.1719C53.4062 71.9062 52.6562 73.3906 52.5 73.3906C52.2812 73.3906 51.0625 70.8594 48.875 65.8125C48 63.7969 47.9062 63.4375 47.9062 62.5312C47.9062 61.1406 48.3906 60.0938 49.4844 59.0938C50.8281 57.875 52.4531 57.5312 54.1094 58.1562ZM24.0625 61.8281C25.4375 62.5469 25.1719 64.5312 23.6406 65.0469C22.9375 65.2812 22.0625 64.8594 21.6562 64.0781C21.375 63.5781 21.375 63.4375 21.5469 62.8594C21.875 61.7656 23.0312 61.2969 24.0625 61.8281ZM45.4688 63.1406C45.4688 63.3906 45.5781 63.875 45.7031 64.2344L45.9219 64.875H36.5312H27.1562L27.25 64.3906C27.2969 64.125 27.3438 63.625 27.3438 63.2969V62.6875H36.4062H45.4688V63.1406Z" fill="white"/>
<path d="M9.56253 5.82809C7.68753 6.76559 7.32815 9.45309 8.89065 10.8593C10.5469 12.3437 12.875 11.9375 13.8282 9.95309C14.2032 9.21872 14.25 8.95309 14.1719 8.26559C13.9063 6.06247 11.5782 4.84372 9.56253 5.82809ZM11.6407 8.15622C11.875 8.42184 11.8907 8.53122 11.75 8.85934C11.5157 9.35934 11.1719 9.49997 10.6875 9.28122C10.4219 9.15622 10.3125 8.96872 10.3125 8.65622C10.3125 7.84372 11.0938 7.54684 11.6407 8.15622Z" fill="white"/>
<path d="M51.25 59.5781C51.0313 59.6719 50.6563 59.9219 50.4219 60.1562C48.9063 61.5781 49.0781 63.9375 50.75 65.1094C51.3438 65.5156 51.5625 65.5781 52.5 65.5781C53.4375 65.5781 53.6563 65.5156 54.25 65.1094C55.9219 63.9375 56.0938 61.5781 54.5781 60.1562C54.3438 59.9219 53.9375 59.6562 53.7031 59.5781C53.1563 59.375 51.7813 59.375 51.25 59.5781ZM53.1875 62.25C53.3125 62.5938 53.2813 62.75 53.0469 63C52.7031 63.375 52.3906 63.3906 52 63.0469C51.6719 62.7656 51.6406 62.4844 51.8906 62.0469C52.1406 61.5625 53 61.7031 53.1875 62.25Z" fill="white"/>
</svg>
