<svg width="74" height="80" viewBox="0 0 74 80" fill="none" xmlns="http://www.w3.org/2000/svg">
<path d="M5.67188 0.21875C4.35938 0.546875 3.375 1.10938 2.39062 2.10938C1.375 3.125 0.75 4.25 0.453125 5.59375C0.328125 6.20312 0.28125 16.1406 0.28125 42.2812C0.28125 77.9062 0.28125 78.1406 0.59375 78.75C0.796875 79.1562 1.125 79.4844 1.53125 79.6875C2.10938 79.9844 2.4375 80 7.3125 80C12.1875 80 12.5156 79.9844 13.0938 79.6875C13.5 79.4844 13.8281 79.1562 14.0312 78.75C14.3438 78.1406 14.3438 77.875 14.3438 59.8438C14.3438 48 14.4062 41.0156 14.5156 40.0312C15.5312 30.6719 20.8125 22.5469 28.875 17.9531C32.4219 15.9219 36.4062 14.5938 39.9219 14.2656L40.9062 14.1719V18.7969V23.4062L39.125 24.2656C29.5469 28.875 24.125 38.8281 25.5156 49.2656C25.8906 52.0781 26.6094 54.4062 27.8906 56.9375C33.8906 68.8438 48.3125 73.6875 60.2031 67.7812C69.5156 63.1562 74.8594 53.1719 73.4844 42.9219C72.4219 34.9688 67.5 28.0469 60.3281 24.4688C59.5469 24.0781 58.7188 23.6875 58.5 23.5938L58.0938 23.4375V18.75V14.0625H62.7031C65.4844 14.0625 67.625 14 68.125 13.8906C70.9219 13.2969 73.0938 11.0156 73.5938 8.14062C74.2188 4.51562 71.7656 0.953125 68.125 0.171875C66.9375 -0.078125 66.2969 -0.046875 65.5938 0.3125C64.8906 0.671875 64.3438 1.5625 64.3438 2.34375C64.3438 3.53125 65.5 4.6875 66.6875 4.6875C67.875 4.6875 69.0312 5.84375 69.0312 7.03125C69.0312 7.8125 68.4844 8.70312 67.7812 9.0625C67.1719 9.375 66.9219 9.375 40.75 9.375H14.3438V7.89062C14.3438 5.20312 13.7656 3.64062 12.2344 2.10938C10.4688 0.328125 8.03125 -0.375 5.67188 0.21875ZM8.40625 5C8.8125 5.20312 9.14062 5.53125 9.34375 5.9375C9.65625 6.54688 9.65625 6.79688 9.65625 33.125V59.6875H7.3125H4.96875V33.0781C4.98438 7.76562 5 6.45312 5.26562 5.95312C5.60938 5.3125 6.59375 4.6875 7.28125 4.6875C7.5625 4.6875 8.07812 4.82812 8.40625 5ZM25.8125 14.2031C25.7344 14.2656 25.1406 14.6875 24.4844 15.125C21.0625 17.4062 17.6875 20.7812 15.4062 24.2031C14.9688 24.8594 14.5469 25.4531 14.4844 25.5312C14.4062 25.625 14.3438 23.1562 14.3438 19.875V14.0625H20.1562C23.4375 14.0625 25.9062 14.125 25.8125 14.2031ZM53.4062 18.125V22.1875L52.4375 22.0625C51.1719 21.9219 47.8281 21.9219 46.5781 22.0625L45.5938 22.1875V18.125V14.0625H49.5H53.4062V18.125ZM47.1562 28.0469C47.1562 29.0781 47.2344 29.5312 47.4688 30C47.8281 30.7031 48.7188 31.25 49.5 31.25C50.2812 31.25 51.1719 30.7031 51.5312 30C51.7656 29.5312 51.8438 29.0781 51.8438 28.0469V26.6875L52.5156 26.7969C55.3125 27.2344 58.8594 28.7188 61.1406 30.4375C62.7188 31.6094 64.5312 33.5 65.5938 35.0781C67.1562 37.3906 68.3906 40.4844 68.7969 43.0781L68.9062 43.75H67.5469C66.5156 43.75 66.0625 43.8281 65.5938 44.0625C64.8906 44.4219 64.3438 45.3125 64.3438 46.0938C64.3438 46.875 64.8906 47.7656 65.5938 48.125C66.0625 48.3594 66.5156 48.4375 67.5469 48.4375H68.9062L68.7969 49.0938C68.3906 51.7031 67.1719 54.7656 65.5938 57.125C64.5312 58.7031 62.1094 61.125 60.5312 62.1875C58.1719 63.7656 55.1094 64.9844 52.5156 65.3906L51.8438 65.5V64.1406C51.8438 63.1094 51.7656 62.6562 51.5312 62.1875C51.1719 61.4844 50.2812 60.9375 49.5 60.9375C48.7188 60.9375 47.8281 61.4844 47.4688 62.1875C47.2344 62.6562 47.1562 63.1094 47.1562 64.1406C47.1562 64.9531 47.0938 65.4688 47 65.4688C46.9062 65.4688 46.2812 65.3594 45.625 65.2188C41 64.2812 36.6719 61.5312 33.8438 57.7344C32.125 55.4531 30.6406 51.9062 30.2031 49.0938L30.0938 48.4375H31.4531C33.1094 48.4375 33.875 48.1094 34.3438 47.1875C34.7344 46.4062 34.7344 45.7812 34.3438 45C33.875 44.0781 33.1094 43.75 31.4531 43.75H30.0938L30.2031 43.0781C30.5938 40.5312 31.8438 37.375 33.3594 35.125C36.0469 31.125 40.6875 28 45.5156 26.9844C47.2812 26.6094 47.1562 26.5312 47.1562 28.0469ZM9.65625 69.8438V75.3125H7.3125H4.96875V69.8438V64.375H7.3125H9.65625V69.8438Z" fill="white"/>
<path d="M48.375 36.2656C48.0156 36.4531 47.6562 36.8125 47.4688 37.1875C47.1875 37.75 47.1562 38.1094 47.1562 41.4375V45.0781L44.875 47.3438C42 50.2031 41.6875 50.6094 41.6875 51.5469C41.6875 53.25 43.3125 54.3438 44.9219 53.7344C45.5 53.5156 51.1562 47.8906 51.5469 47.1563C51.8125 46.625 51.8438 46.2031 51.8438 42.1875C51.8438 38.0938 51.8281 37.7656 51.5312 37.1875C50.9531 36.0469 49.5469 35.6406 48.375 36.2656Z" fill="white"/>
</svg>
